<?xml version="1.0" encoding="utf-8"?>
<!-- Generator: Adobe Illustrator 21.0.0, SVG Export Plug-In . SVG Version: 6.00 Build 0)  -->
<svg version="1.1" id="Layer_1" xmlns="http://www.w3.org/2000/svg" xmlns:xlink="http://www.w3.org/1999/xlink" x="0px" y="0px"
	 viewBox="0 0 1417.3 1417.3" style="enable-background:new 0 0 1417.3 1417.3;" xml:space="preserve">
<g id="OtKJCP_1_">
	<g>
		<path d="M417.9,995.6c0-5.2,0-7.7,0-10.2c0.2-55.1,0.4-110.1,0.8-165.2c0.1-18,0.9-36,1.6-54c0.5-12.6,3.4-17.1,15.8-17.4
			c35.3-0.9,70.6-1.3,105.9-0.4c15.7,0.4,18,4.4,18.4,20.2c0.9,45,2.1,90.1,2.2,135.1c0.2,88.4-0.3,176.9-0.7,265.3
			c-0.1,17.7-0.8,35.3-1.6,53c-0.6,13-4.6,17.7-17.7,17.9c-34.6,0.5-69.3,0.2-104,0.2c-9.6,0-15.7-5.1-20.6-13.3
			c-42-69.7-84.4-139.1-126.7-208.7c-2.4-4-4.9-7.9-8.6-13.9c-0.3,5-0.5,7.7-0.5,10.4c-0.3,49.4-0.4,98.8-0.8,148.2
			c-0.2,19.7-0.9,39.3-1.8,59c-0.6,13.4-4.2,17.8-17.6,18c-35,0.6-70,0.6-104.9,0c-13.6-0.2-17.4-5-17.5-19
			c-0.6-131.8-1.1-263.6-1.5-395.4c-0.1-20,0.8-40,1.5-60c0.4-12.2,3-16.4,15.2-16.6c36.3-0.8,72.6-0.4,108.9-0.3
			c8.2,0,13.2,4.7,17.2,11.6c43.8,76,87.8,151.8,131.8,227.6C413.8,989.8,415.2,991.5,417.9,995.6z"/>
		<path d="M280,599.7c0,16.4,0.3,31.7-0.1,46.9c-0.4,17-2.8,21-19.3,21.5c-34,1-68,1.1-102,0c-16.8-0.5-18.9-4.2-19.1-21.5
			c-0.8-74.7-1.7-149.4-2-224.2c-0.2-63.1,0.3-126.1,0.7-189.2c0.1-13.3,0.8-26.7,1.5-40c0.6-11.5,3.6-14.7,15.2-15.4
			c67.3-4.3,134.6-6.7,201.9-1.6c40.4,3.1,79.7,11.6,116.5,29.6c62.2,30.4,93.6,81.8,101.1,149.3c3.9,35.1,2.5,70-8.1,104
			C547,521.9,502.7,560,442.3,581.1c-50.2,17.5-102.2,21.2-154.8,19.1C285.9,600.1,284.2,600,280,599.7z M282.6,463.9
			c34.4,1.9,67.7,3.2,100-7.8c32.8-11.2,49.7-35.4,49.6-69.5c-0.1-34.4-17-57.9-49.8-69.4c-24.7-8.6-50.4-9.1-76.1-8.9
			c-7.9,0.1-15.7,0.7-23.7,1.1C282.6,361.3,282.6,412,282.6,463.9z"/>
		<path d="M1099.7,1251.6c-66.8-1.9-128.2-18.3-179.9-62.5c-49.9-42.7-76.2-97.7-83.1-162.4c-5.4-50-0.4-98.8,20.2-145
			c33.3-74.6,92.1-118.6,170.4-137.1c82.9-19.6,160.8-7.9,232,41.1c8.5,5.9,10.2,11.5,5.7,20.8c-15.2,31.4-32.8,61.2-56.1,87.2
			c-10.3,11.4-10.9,11.1-24.3,3.6c-45.4-25.5-92.6-31.8-140.8-9.2c-46.1,21.6-69,68.1-62.2,122.2c6.1,48.4,40.6,86.5,88.3,97.2
			c43.5,9.8,83.2-0.9,120.6-23.2c19.5-11.6,21-12.6,34,5.7c19.1,26.8,35.8,55.3,53.5,83.1c4.5,7,0,11-4.8,15
			c-36.5,30.3-78.3,49.3-124.8,57.7C1132.3,1248.9,1115.9,1249.8,1099.7,1251.6z"/>
		<path d="M834.6,427.3c0.9-72,19.4-132.9,66.9-182.8c38.7-40.6,86.8-63.6,141.4-73.4c76.5-13.7,148-1.7,213,42.5
			c14.6,9.9,14.8,10.5,7.2,26.6c-14.3,30.3-32.1,58.5-54.3,83.7c-9.7,11.1-10.8,11-23.5,3.7c-37.8-21.5-77.9-29.9-120.3-17.9
			c-77.5,21.9-98.5,97.7-76.5,157.6c17.3,47.1,64.2,76,117,73.9c33-1.3,62.4-12.6,90-29.9c11.9-7.5,15-7.4,23.9,2.7
			c24.1,27.1,42.4,58.1,59,90.2c3.7,7.1-1,10.4-5.4,14.1c-29.6,24.8-62.9,43.2-100.4,51.9c-101.4,23.5-193.7,7.7-270.1-67.9
			c-40-39.6-59.4-89.4-65.7-144.7C835.4,446.1,835.1,434.4,834.6,427.3z"/>
		<path d="M635,377c0-57.7-0.4-115.5,0.2-173.2c0.3-26.8,3.2-29.3,30.5-29.5c31.3-0.2,62.7,0.7,94,1.3c10.3,0.2,15.6,5.2,15.8,16.3
			c0.6,30.7,1.9,268.2,0.7,356.3c-0.4,28.3-3,30.4-31.5,30.5c-31,0.2-62-0.7-93-1.4c-10.3-0.2-15.6-5.3-15.8-16.3
			C634.7,499.8,633.9,377,635,377z"/>
		<path d="M705,836.3c18.6,0.8,36.6,1.2,54.5,2.6c12.5,1,15.2,4,15.7,16.1c1.2,30.3,3,60.6,2.9,90.9c-0.2,88-0.8,176.1-1.9,264.1
			c-0.4,28.1-1.3,29.5-29,30.5c-31.6,1.2-63.3,0.2-94.9-0.7c-12.2-0.3-15.8-4.6-16.3-16.8c-1.2-32-2.6-63.9-2.9-95.9
			c-0.5-58.7-0.5-117.4,0-176.1c0.3-32.3,2-64.6,2.8-96.9c0.2-10,5.4-14.6,14.8-15.1C669,837.9,687.3,837.2,705,836.3z"/>
		<path d="M705.6,780.8c-40.6-0.1-72.8-32.7-72.6-73.4c0.3-39.9,33.1-72.2,73.2-71.9c39.8,0.3,72.4,33.3,72.2,73
			C778.1,748.6,745.6,780.9,705.6,780.8z"/>
	</g>
</g>
</svg>
